<svg width="110" height="18" viewBox="0 0 110 18" fill="none" xmlns="http://www.w3.org/2000/svg">
<path d="M16.5001 7.25249C16.4527 7.1153 16.3666 6.99481 16.2521 6.90561C16.1376 6.81642 15.9997 6.76236 15.8551 6.74999L11.5876 6.12749L9.6751 2.24999C9.61369 2.12318 9.5178 2.01624 9.39842 1.94142C9.27904 1.86659 9.141 1.8269 9.0001 1.8269C8.85921 1.8269 8.72117 1.86659 8.60179 1.94142C8.48241 2.01624 8.38652 2.12318 8.32511 2.24999L6.41261 6.11999L2.14511 6.74999C2.0063 6.76972 1.8758 6.82796 1.76842 6.91811C1.66104 7.00825 1.58108 7.12669 1.53761 7.25999C1.49781 7.39024 1.49424 7.52887 1.52728 7.66101C1.56031 7.79314 1.6287 7.91378 1.72511 8.00999L4.82261 11.01L4.07261 15.27C4.04583 15.4106 4.05985 15.5559 4.11301 15.6888C4.16617 15.8217 4.25625 15.9366 4.37261 16.02C4.48602 16.1011 4.61979 16.1489 4.75889 16.1582C4.898 16.1675 5.03693 16.1378 5.16011 16.0725L9.0001 14.07L12.8251 16.08C12.9304 16.1394 13.0492 16.1704 13.1701 16.17C13.329 16.1706 13.4839 16.1207 13.6126 16.0275C13.729 15.9441 13.819 15.8292 13.8722 15.6963C13.9254 15.5634 13.9394 15.4181 13.9126 15.2775L13.1626 11.0175L16.2601 8.01749C16.3684 7.92575 16.4484 7.80516 16.4909 7.66975C16.5334 7.53433 16.5366 7.38964 16.5001 7.25249ZM11.8876 10.2525C11.7996 10.3376 11.7338 10.4429 11.6959 10.5592C11.658 10.6756 11.6492 10.7994 11.6701 10.92L12.2101 14.0625L9.39011 12.5625C9.28159 12.5047 9.16054 12.4745 9.03761 12.4745C8.91467 12.4745 8.79362 12.5047 8.6851 12.5625L5.86511 14.0625L6.40511 10.92C6.42606 10.7994 6.41719 10.6756 6.37928 10.5592C6.34137 10.4429 6.27556 10.3376 6.18761 10.2525L3.93761 8.00249L7.09511 7.54499C7.2166 7.52809 7.3321 7.48164 7.43148 7.40973C7.53086 7.33781 7.61107 7.24262 7.66511 7.13249L9.0001 4.27499L10.4101 7.13999C10.4641 7.25012 10.5444 7.34531 10.6437 7.41723C10.7431 7.48914 10.8586 7.53559 10.9801 7.55249L14.1376 8.00999L11.8876 10.2525Z" fill="#141414"/>
<path d="M39.5001 7.25249C39.4527 7.1153 39.3666 6.99481 39.2521 6.90561C39.1376 6.81642 38.9997 6.76236 38.8551 6.74999L34.5876 6.12749L32.6751 2.24999C32.6137 2.12318 32.5178 2.01624 32.3984 1.94142C32.279 1.86659 32.141 1.8269 32.0001 1.8269C31.8592 1.8269 31.7212 1.86659 31.6018 1.94142C31.4824 2.01624 31.3865 2.12318 31.3251 2.24999L29.4126 6.11999L25.1451 6.74999C25.0063 6.76972 24.8758 6.82796 24.7684 6.91811C24.661 7.00825 24.5811 7.12669 24.5376 7.25999C24.4978 7.39024 24.4942 7.52887 24.5273 7.66101C24.5603 7.79314 24.6287 7.91378 24.7251 8.00999L27.8226 11.01L27.0726 15.27C27.0458 15.4106 27.0598 15.5559 27.113 15.6888C27.1662 15.8217 27.2562 15.9366 27.3726 16.02C27.486 16.1011 27.6198 16.1489 27.7589 16.1582C27.898 16.1675 28.0369 16.1378 28.1601 16.0725L32.0001 14.07L35.8251 16.08C35.9304 16.1394 36.0492 16.1704 36.1701 16.17C36.329 16.1706 36.4839 16.1207 36.6126 16.0275C36.729 15.9441 36.819 15.8292 36.8722 15.6963C36.9254 15.5634 36.9394 15.4181 36.9126 15.2775L36.1626 11.0175L39.2601 8.01749C39.3684 7.92575 39.4484 7.80516 39.4909 7.66975C39.5334 7.53433 39.5366 7.38964 39.5001 7.25249ZM34.8876 10.2525C34.7996 10.3376 34.7338 10.4429 34.6959 10.5592C34.658 10.6756 34.6492 10.7994 34.6701 10.92L35.2101 14.0625L32.3901 12.5625C32.2816 12.5047 32.1605 12.4745 32.0376 12.4745C31.9147 12.4745 31.7936 12.5047 31.6851 12.5625L28.8651 14.0625L29.4051 10.92C29.4261 10.7994 29.4172 10.6756 29.3793 10.5592C29.3414 10.4429 29.2756 10.3376 29.1876 10.2525L26.9376 8.00249L30.0951 7.54499C30.2166 7.52809 30.3321 7.48164 30.4315 7.40973C30.5309 7.33781 30.6111 7.24262 30.6651 7.13249L32.0001 4.27499L33.4101 7.13999C33.4641 7.25012 33.5444 7.34531 33.6437 7.41723C33.7431 7.48914 33.8586 7.53559 33.9801 7.55249L37.1376 8.00999L34.8876 10.2525Z" fill="#141414"/>
<path d="M62.5001 7.25249C62.4527 7.1153 62.3666 6.99481 62.2521 6.90561C62.1376 6.81642 61.9997 6.76236 61.8551 6.74999L57.5876 6.12749L55.6751 2.24999C55.6137 2.12318 55.5178 2.01624 55.3984 1.94142C55.279 1.86659 55.141 1.8269 55.0001 1.8269C54.8592 1.8269 54.7212 1.86659 54.6018 1.94142C54.4824 2.01624 54.3865 2.12318 54.3251 2.24999L52.4126 6.11999L48.1451 6.74999C48.0063 6.76972 47.8758 6.82796 47.7684 6.91811C47.661 7.00825 47.5811 7.12669 47.5376 7.25999C47.4978 7.39024 47.4942 7.52887 47.5273 7.66101C47.5603 7.79314 47.6287 7.91378 47.7251 8.00999L50.8226 11.01L50.0726 15.27C50.0458 15.4106 50.0598 15.5559 50.113 15.6888C50.1662 15.8217 50.2562 15.9366 50.3726 16.02C50.486 16.1011 50.6198 16.1489 50.7589 16.1582C50.898 16.1675 51.0369 16.1378 51.1601 16.0725L55.0001 14.07L58.8251 16.08C58.9304 16.1394 59.0492 16.1704 59.1701 16.17C59.329 16.1706 59.4839 16.1207 59.6126 16.0275C59.729 15.9441 59.819 15.8292 59.8722 15.6963C59.9254 15.5634 59.9394 15.4181 59.9126 15.2775L59.1626 11.0175L62.2601 8.01749C62.3684 7.92575 62.4484 7.80516 62.4909 7.66975C62.5334 7.53433 62.5366 7.38964 62.5001 7.25249ZM57.8876 10.2525C57.7996 10.3376 57.7338 10.4429 57.6959 10.5592C57.658 10.6756 57.6492 10.7994 57.6701 10.92L58.2101 14.0625L55.3901 12.5625C55.2816 12.5047 55.1605 12.4745 55.0376 12.4745C54.9147 12.4745 54.7936 12.5047 54.6851 12.5625L51.8651 14.0625L52.4051 10.92C52.4261 10.7994 52.4172 10.6756 52.3793 10.5592C52.3414 10.4429 52.2756 10.3376 52.1876 10.2525L49.9376 8.00249L53.0951 7.54499C53.2166 7.52809 53.3321 7.48164 53.4315 7.40973C53.5309 7.33781 53.6111 7.24262 53.6651 7.13249L55.0001 4.27499L56.4101 7.13999C56.4641 7.25012 56.5444 7.34531 56.6437 7.41723C56.7431 7.48914 56.8586 7.53559 56.9801 7.55249L60.1376 8.00999L57.8876 10.2525Z" fill="#141414"/>
<path d="M85.5001 7.25249C85.4527 7.1153 85.3666 6.99481 85.2521 6.90561C85.1376 6.81642 84.9997 6.76236 84.8551 6.74999L80.5876 6.12749L78.6751 2.24999C78.6137 2.12318 78.5178 2.01624 78.3984 1.94142C78.279 1.86659 78.141 1.8269 78.0001 1.8269C77.8592 1.8269 77.7212 1.86659 77.6018 1.94142C77.4824 2.01624 77.3865 2.12318 77.3251 2.24999L75.4126 6.11999L71.1451 6.74999C71.0063 6.76972 70.8758 6.82796 70.7684 6.91811C70.661 7.00825 70.5811 7.12669 70.5376 7.25999C70.4978 7.39024 70.4942 7.52887 70.5273 7.66101C70.5603 7.79314 70.6287 7.91378 70.7251 8.00999L73.8226 11.01L73.0726 15.27C73.0458 15.4106 73.0598 15.5559 73.113 15.6888C73.1662 15.8217 73.2562 15.9366 73.3726 16.02C73.486 16.1011 73.6198 16.1489 73.7589 16.1582C73.898 16.1675 74.0369 16.1378 74.1601 16.0725L78.0001 14.07L81.8251 16.08C81.9304 16.1394 82.0492 16.1704 82.1701 16.17C82.329 16.1706 82.4839 16.1207 82.6126 16.0275C82.729 15.9441 82.819 15.8292 82.8722 15.6963C82.9254 15.5634 82.9394 15.4181 82.9126 15.2775L82.1626 11.0175L85.2601 8.01749C85.3684 7.92575 85.4484 7.80516 85.4909 7.66975C85.5334 7.53433 85.5366 7.38964 85.5001 7.25249ZM80.8876 10.2525C80.7996 10.3376 80.7338 10.4429 80.6959 10.5592C80.658 10.6756 80.6492 10.7994 80.6701 10.92L81.2101 14.0625L78.3901 12.5625C78.2816 12.5047 78.1605 12.4745 78.0376 12.4745C77.9147 12.4745 77.7936 12.5047 77.6851 12.5625L74.8651 14.0625L75.4051 10.92C75.4261 10.7994 75.4172 10.6756 75.3793 10.5592C75.3414 10.4429 75.2756 10.3376 75.1876 10.2525L72.9376 8.00249L76.0951 7.54499C76.2166 7.52809 76.3321 7.48164 76.4315 7.40973C76.5309 7.33781 76.6111 7.24262 76.6651 7.13249L78.0001 4.27499L79.4101 7.13999C79.4641 7.25012 79.5444 7.34531 79.6437 7.41723C79.7431 7.48914 79.8586 7.53559 79.9801 7.55249L83.1376 8.00999L80.8876 10.2525Z" fill="#141414"/>
<path d="M108.5 7.25249C108.453 7.1153 108.367 6.99481 108.252 6.90561C108.138 6.81642 108 6.76236 107.855 6.74999L103.588 6.12749L101.675 2.24999C101.614 2.12318 101.518 2.01624 101.398 1.94142C101.279 1.86659 101.141 1.8269 101 1.8269C100.859 1.8269 100.721 1.86659 100.602 1.94142C100.482 2.01624 100.387 2.12318 100.325 2.24999L98.4126 6.11999L94.1451 6.74999C94.0063 6.76972 93.8758 6.82796 93.7684 6.91811C93.661 7.00825 93.5811 7.12669 93.5376 7.25999C93.4978 7.39024 93.4942 7.52887 93.5273 7.66101C93.5603 7.79314 93.6287 7.91378 93.7251 8.00999L96.8226 11.01L96.0726 15.27C96.0458 15.4106 96.0598 15.5559 96.113 15.6888C96.1662 15.8217 96.2562 15.9366 96.3726 16.02C96.486 16.1011 96.6198 16.1489 96.7589 16.1582C96.898 16.1675 97.0369 16.1378 97.1601 16.0725L101 14.07L104.825 16.08C104.93 16.1394 105.049 16.1704 105.17 16.17C105.329 16.1706 105.484 16.1207 105.613 16.0275C105.729 15.9441 105.819 15.8292 105.872 15.6963C105.925 15.5634 105.939 15.4181 105.913 15.2775L105.163 11.0175L108.26 8.01749C108.368 7.92575 108.448 7.80516 108.491 7.66975C108.533 7.53433 108.537 7.38964 108.5 7.25249ZM103.888 10.2525C103.8 10.3376 103.734 10.4429 103.696 10.5592C103.658 10.6756 103.649 10.7994 103.67 10.92L104.21 14.0625L101.39 12.5625C101.282 12.5047 101.161 12.4745 101.038 12.4745C100.915 12.4745 100.794 12.5047 100.685 12.5625L97.8651 14.0625L98.4051 10.92C98.4261 10.7994 98.4172 10.6756 98.3793 10.5592C98.3414 10.4429 98.2756 10.3376 98.1876 10.2525L95.9376 8.00249L99.0951 7.54499C99.2166 7.52809 99.3321 7.48164 99.4315 7.40973C99.5309 7.33781 99.6111 7.24262 99.6651 7.13249L101 4.27499L102.41 7.13999C102.464 7.25012 102.544 7.34531 102.644 7.41723C102.743 7.48914 102.859 7.53559 102.98 7.55249L106.138 8.00999L103.888 10.2525Z" fill="#141414"/>
</svg>
