<svg width="125" height="40" viewBox="0 0 125 40" fill="none" xmlns="http://www.w3.org/2000/svg">
<path d="M42.2309 35.0716C40.8955 33.7362 40.227 33.7362 36.8876 31.7323C36.8876 31.7323 34.2153 30.3969 29.5389 26.389C26.6406 23.9052 28.7645 21.9028 24.4637 21.0925C24.297 19.8927 24.0757 18.1038 24.0757 17.0676C24.0757 16.5222 22.8821 15.3224 22.6593 15.9051C22.5907 16.0859 22.9335 19.1151 23.1501 20.9461C20.0212 20.8978 19.2451 23.3224 18.8493 23.7166C17.5139 25.0521 16.4808 25.6754 10.8337 27.056C5.28634 28.4117 4.3436 28.7108 2.81808 29.7284C0.723788 31.1246 -0.424643 33.8235 0.145677 34.4047C0.491608 34.7568 1.50291 34.3657 3.34165 33.4791L38.9741 37.4729C42.3571 39.9988 42.9742 40.3416 43.5663 39.7495C44.0727 39.2415 44.2644 37.1051 42.2309 35.0716ZM4.76277 32.7794C4.84224 32.7405 4.92015 32.7015 5.00118 32.661C5.97197 32.1811 5.96262 32.0767 6.82589 31.7307C10.1652 30.3953 12.1691 29.7268 14.1746 29.0583C16.7878 28.1873 19.6643 26.6368 22.8587 27.0544C26.9741 27.592 28.0789 28.8137 30.2885 30.6213C33.941 33.61 31.6161 31.9489 37.5546 36.4055C37.5811 36.4242 37.6044 36.4429 37.6294 36.4616L4.76277 32.7794Z" fill="#8783C4"/>
<path d="M21.0902 19.4875C19.6208 19.101 18.4256 18.5868 17.5078 17.9448L19.2998 13.9214C20.1631 14.4917 21.165 14.9514 22.3041 15.2989C23.4432 15.6479 24.5636 15.8225 25.6668 15.8225C27.7611 15.8225 28.8082 15.2989 28.8082 14.2517C28.8082 13.7001 28.5091 13.2919 27.9122 13.0254C27.3154 12.7589 26.3556 12.4785 25.0326 12.1855C23.5803 11.8739 22.368 11.5373 21.3941 11.1789C20.4202 10.8205 19.5834 10.2471 18.8853 9.45546C18.1872 8.66543 17.8382 7.59958 17.8382 6.25793C17.8382 5.08301 18.1592 4.02184 18.8027 3.07442C19.4463 2.12857 20.4062 1.37905 21.6824 0.82743C22.9586 0.27581 24.5262 0 26.382 0C27.6505 0 28.8986 0.141799 30.1296 0.426959C31.3607 0.712119 32.4452 1.12973 33.3817 1.68135L31.7004 5.7328C29.8632 4.74019 28.0805 4.24467 26.354 4.24467C25.2695 4.24467 24.4794 4.40517 23.9839 4.72617C23.4884 5.04717 23.2391 5.46634 23.2391 5.98056C23.2391 6.49478 23.532 6.88123 24.121 7.13834C24.7085 7.39545 25.6543 7.66192 26.9602 7.93773C28.4296 8.25093 29.6466 8.58596 30.6127 8.94435C31.5773 9.30275 32.4125 9.87307 33.1199 10.6538C33.8274 11.4344 34.1811 12.4956 34.1811 13.8373C34.1811 14.995 33.8601 16.0422 33.2165 16.9787C32.573 17.9152 31.6084 18.6647 30.3229 19.2257C29.0373 19.7851 27.4744 20.0656 25.6372 20.0656C24.0758 20.0671 22.5597 19.8739 21.0902 19.4875Z" fill="black"/>
<path d="M55.3185 0.387939V19.6806H49.8615V12.1558H42.4209V19.6806H36.9639V0.387939H42.4209V7.63692H49.8615V0.387939H55.3185Z" fill="black"/>
<path d="M72.3789 15.933H64.2215L62.7053 19.6806H57.1377L65.6535 0.387939H71.0295L79.5734 19.6806H73.8967L72.3789 15.933ZM70.7817 11.9081L68.301 5.73429L65.8203 11.9081H70.7817Z" fill="black"/>
<path d="M89.8248 14.554H86.8486V19.6806H81.3916V0.387939H90.2113C91.9565 0.387939 93.4727 0.677775 94.7583 1.25589C96.0438 1.834 97.0364 2.66142 97.7345 3.73662C98.4326 4.81181 98.7817 6.07555 98.7817 7.52628C98.7817 8.92247 98.456 10.141 97.8031 11.1788C97.1502 12.2166 96.2183 13.03 95.006 13.6175L99.1681 19.6806H93.3247L89.8248 14.554ZM92.4162 5.43199C91.8459 4.93647 91.0013 4.68715 89.8809 4.68715H86.8486V10.3374H89.8809C91.0013 10.3374 91.8475 10.0943 92.4162 9.60655C92.985 9.12037 93.2701 8.42695 93.2701 7.52628C93.2701 6.62717 92.985 5.92752 92.4162 5.43199Z" fill="black"/>
<path d="M119.48 19.6806L119.425 9.45539L114.464 17.778H112.039L107.106 9.72965V19.6791H102.062V0.387939H106.554L113.334 11.5232L119.949 0.387939H124.441L124.496 19.6806H119.48Z" fill="black"/>
<path d="M22.6494 15.3909C22.6494 15.3909 23.8321 14.3375 24.8278 14.6694C25.7628 14.9811 26.7912 16.4708 26.9517 16.7933C27.6592 18.2098 25.9903 17.9573 25.5353 17.5008C24.8278 16.7933 24.7094 16.4832 24.1188 16.0843C23.7916 15.8646 22.6494 15.3909 22.6494 15.3909Z" fill="#8783C4"/>
</svg>
