<svg width="24" height="24" viewBox="0 0 24 24" fill="none" xmlns="http://www.w3.org/2000/svg">
<path d="M12.543 2V15.6142C12.543 17.4855 10.8637 18.4523 9.65846 18.4523C8.75032 18.4523 6.68464 17.7624 6.68464 15.5917C6.68464 13.3128 8.61185 12.7312 9.67995 12.7312C10.302 12.7312 10.5461 12.8609 10.5461 12.8609V9.22832C10.5461 9.22832 10.0801 9.16105 9.54771 9.16105C5.72301 9.16105 3 12.1606 3 15.5917C3 18.4906 5.33972 22 9.61383 22C14.1664 22 16.2508 18.3212 16.2508 15.6126V8.85993C16.2508 8.85993 18.2798 10.2358 21 10.2358V6.79539C17.8795 6.57971 16.2114 4.54872 16.0954 2H12.543Z" fill="black"/>
</svg>
